<?xml version="1.0" standalone="no"?><!DOCTYPE svg PUBLIC "-//W3C//DTD SVG 1.1//EN" "http://www.w3.org/Graphics/SVG/1.1/DTD/svg11.dtd"><svg class="icon" width="16px" height="16.00px" viewBox="0 0 1024 1024" version="1.1" xmlns="http://www.w3.org/2000/svg"><path d="M568.176 512l276.723-276.722c14.938-14.938 14.938-39.158 0-54.097s-39.158-14.938-54.096 0l-276.723 276.723-280.882-280.882c-14.938-14.938-39.158-14.938-54.096 0s-14.938 39.158 0 54.097l280.882 280.882-280.882 280.882c-14.938 14.938-14.938 39.158 0 54.097 14.937 14.937 39.157 14.937 54.096 0l280.882-280.882 276.723 276.723c14.937 14.937 39.158 14.937 54.096 0 14.938-14.938 14.938-39.158 0-54.097l-276.723-276.723z" fill="#ffffff" /></svg>